<svg width="124" height="124" viewBox="0 0 124 124" fill="none" xmlns="http://www.w3.org/2000/svg">
<path d="M61.999 51.2661C72.1812 51.2661 80.4355 43.0118 80.4355 32.8296C80.4355 22.6474 72.1812 14.3931 61.999 14.3931C51.8168 14.3931 43.5625 22.6474 43.5625 32.8296C43.5625 43.0118 51.8168 51.2661 61.999 51.2661Z" fill="#00A88E"/>
<path d="M99.2959 51.2661C105.733 51.2661 110.951 46.0479 110.951 39.6108C110.951 33.1738 105.733 27.9556 99.2959 27.9556C92.8589 27.9556 87.6406 33.1738 87.6406 39.6108C87.6406 46.0479 92.8589 51.2661 99.2959 51.2661Z" fill="#00A88E"/>
<path d="M24.7021 51.2661C31.1392 51.2661 36.3574 46.0479 36.3574 39.6108C36.3574 33.1738 31.1392 27.9556 24.7021 27.9556C18.2651 27.9556 13.0469 33.1738 13.0469 39.6108C13.0469 46.0479 18.2651 51.2661 24.7021 51.2661Z" fill="#00A88E"/>
<path d="M36.1867 61.7324C31.5988 57.9734 27.4438 58.471 22.139 58.471C14.2049 58.471 7.75 64.8878 7.75 72.7731V95.9162C7.75 99.3408 10.5451 102.125 13.9824 102.125C28.8219 102.125 27.0342 102.394 27.0342 101.485C27.0342 85.0862 25.0918 73.0598 36.1867 61.7324Z" fill="#00A88E"/>
<path d="M67.0456 58.5557C57.7799 57.7829 49.7261 58.5646 42.7793 64.2986C31.1544 73.6101 33.3916 86.1476 33.3916 101.485C33.3916 105.543 36.6932 108.907 40.8128 108.907C85.544 108.907 87.3243 110.349 89.9768 104.475C90.8467 102.489 90.6083 103.12 90.6083 84.1168C90.6083 69.023 77.539 58.5557 67.0456 58.5557Z" fill="#00A88E"/>
<path d="M101.86 58.471C96.5264 58.471 92.3943 57.9785 87.8125 61.7323C98.8246 72.9757 96.9651 84.1815 96.9651 101.485C96.9651 102.399 95.481 102.125 109.794 102.125C113.355 102.125 116.249 99.2411 116.249 95.6958V72.7731C116.249 64.8877 109.794 58.471 101.86 58.471Z" fill="#00A88E"/>
</svg>
