<svg width="124" height="124" viewBox="0 0 124 124" fill="none" xmlns="http://www.w3.org/2000/svg">
<path d="M41.8703 98.2043C46.8015 95.0319 50.8745 91.3743 53.0614 87.8968C54.1358 86.1845 54.7313 84.5698 54.6889 83.1393C54.6529 81.8721 54.0701 80.6875 52.8156 79.6788C51.453 78.5853 49.3614 77.6783 46.4116 77.0299C45.2524 78.562 44.0509 80.1047 42.862 81.6263L42.79 81.711L42.7667 81.7407L42.7243 81.8L42.6522 81.8848L42.6098 81.9441L42.5865 81.9738L42.5208 82.0586L42.4488 82.1497L42.3831 82.2345L42.3174 82.3256L42.2941 82.3553L42.2454 82.4082L42.1797 82.4994L42.1309 82.5545L42.1076 82.5841L42.0419 82.6689L41.9762 82.76L41.9169 82.8321L41.8872 82.8681V82.8744L41.8575 82.9105L41.8279 82.9465L41.7982 82.9825L41.7749 83.0249H41.7685L41.7452 83.0609L41.7156 83.097L41.6859 83.133L41.6562 83.1754L41.6266 83.2114L41.5969 83.2474L41.5905 83.2601L41.5354 83.3258L41.4761 83.3979V83.4042L41.4464 83.4403L41.4168 83.4763L41.3574 83.5547L41.3278 83.5907L41.2981 83.6331L41.2684 83.6691L41.2388 83.7115L41.2091 83.7475L41.1794 83.7899H41.1731L41.1434 83.8259V83.8323L41.1137 83.8683L41.0841 83.9107L41.0544 83.9467L41.0247 83.9891H41.0184L40.9887 84.0315L40.959 84.0675L40.9294 84.1099L40.8997 84.1523H40.8933L40.8637 84.1947L40.834 84.2307V84.2371L40.798 84.2731V84.2794L40.7683 84.3155V84.3218L40.7386 84.3578L40.7323 84.3642L40.7026 84.4002V84.4066L40.673 84.4426L40.6666 84.449L40.6369 84.485V84.4913L40.6009 84.5337L40.5712 84.5761L40.5352 84.6185L40.4992 84.6609V84.6672L40.4695 84.7096H40.4632L40.4335 84.752L40.3975 84.7944V84.8007L40.3254 84.8855V84.8919L40.2957 84.9342H40.2894L40.2597 84.983H40.2534L40.2237 85.0254L40.2173 85.0317L40.1877 85.0741H40.1813L40.1453 85.1229L40.0732 85.2182L40.0372 85.2669L40.0012 85.3157L39.9588 85.3644L39.9228 85.4132C39.4714 85.9896 38.9204 86.441 38.2826 86.7525C37.6405 87.064 36.9433 87.2272 36.2164 87.2272C35.4895 87.2272 34.7923 87.064 34.1502 86.7525C33.5145 86.441 32.9614 85.9896 32.51 85.4132C31.6942 84.3684 31.0754 83.5759 30.4439 82.777C27.0681 78.4815 23.4465 73.8745 21.054 69.8799C19.9075 71.5307 18.831 73.2387 17.8096 74.9912C16.2901 77.6041 14.9085 80.2764 13.6349 83.0037C13.4484 83.4 13.1305 83.7009 12.7575 83.8683C17.3773 93.6651 24.9277 101.805 34.2816 107.158C35.1717 105.314 36.1549 103.589 37.3459 102.093C38.5898 100.493 40.0626 99.16 41.8703 98.2043Z" fill="#00A88E"/>
<path d="M14.6393 52.3353C16.2075 52.4921 17.7926 52.5154 19.4095 52.3841C19.596 51.8606 19.8058 51.3499 20.0347 50.8456C20.2381 50.4005 20.4543 49.9682 20.6895 49.5423C21.2955 48.4361 22.0224 47.3786 22.8764 46.389C22.9612 46.2873 23.0502 46.1856 23.1413 46.0817L23.1583 46.0648L23.1752 46.0415L23.2176 45.9991L23.2346 45.9758L23.2409 45.9694L23.2536 45.9567L23.2769 45.9334L23.2939 45.9164V45.9101L23.3363 45.8677L23.3723 45.8253L23.3893 45.8084C24.4404 44.6852 25.5995 43.7486 26.8435 42.9857C28.0683 42.2355 29.3843 41.64 30.7533 41.2141C32.0142 39.6396 33.5526 38.0354 35.5171 36.4926C37.6489 34.81 40.3042 33.1952 43.6927 31.7288C50.2705 28.887 55.028 25.8418 59.1307 22.2266C63.0892 18.7427 66.4586 14.7058 70.2667 9.79783C67.0562 9.1748 63.7419 8.85693 60.347 8.85693C34.8305 8.85693 13.5522 27.0328 8.75872 51.1465C8.82441 51.1528 8.88587 51.1698 8.9452 51.1889C10.8185 51.7398 12.7173 52.1425 14.6393 52.3353Z" fill="#00A88E"/>
<path d="M90.1951 88.8589C89.161 84.6355 88.3387 80.3294 87.7984 75.9131C87.2813 71.7447 87.0482 70.3694 86.9443 70.38C86.6201 70.4224 85.5563 71.9969 84.4756 73.5947C83.0939 75.644 81.6952 77.7207 80.0126 78.3522C77.2366 79.3863 70.2879 76.1356 65.3969 71.7087C63.8351 70.2974 62.4598 68.7652 61.4511 67.2225C60.3576 65.5399 59.6859 63.8107 59.6498 62.1281C59.6011 59.761 60.7369 57.6525 63.5596 56.114C64.0767 55.8321 64.6107 55.6583 65.2126 55.4591C66.8337 54.9251 69.1775 54.1495 69.1415 50.708C69.0991 46.5503 71.7904 43.8547 75.5921 41.9496C78.4212 40.5383 81.8097 39.5889 85.0541 38.79C84.0157 35.9313 83.63 32.85 83.8885 29.8345C84.2552 25.6534 85.8763 21.5741 88.7477 18.3678C88.9766 18.1157 89.2097 17.8698 89.4449 17.6346C84.7468 14.511 79.521 12.1206 73.9222 10.6245C73.8629 10.8597 73.7591 11.0801 73.6044 11.2857C69.436 16.6747 65.8123 21.0761 61.4829 24.8906C57.1281 28.7283 52.076 31.96 45.0956 34.9755C42.044 36.2979 39.6473 37.7622 37.7189 39.2816C37.2505 39.6482 36.8119 40.0149 36.4029 40.3878C40.5776 40.4302 44.7396 41.9009 47.9607 44.785C48.412 45.1877 48.8443 45.62 49.2576 46.082C52.1057 49.2607 53.7438 53.357 54.1104 57.574C54.4834 61.7848 53.587 66.1396 51.3598 69.8587C50.5778 71.162 49.6666 72.5309 48.6748 73.938C51.4382 74.6882 53.5276 75.7033 55.0365 76.9112C57.1747 78.6362 58.1664 80.7256 58.2321 83.044C58.2915 85.2119 57.5053 87.4942 56.0643 89.7892C53.5827 93.7244 49.0774 97.7911 43.6842 101.25C43.6419 101.273 43.5995 101.298 43.5571 101.322C42.2114 102.029 41.0819 103.051 40.1093 104.282C39.0709 105.585 38.1999 107.111 37.4179 108.751L37.3946 108.794C44.3327 112.157 52.1184 114.049 60.347 114.049C73.225 114.049 85.0181 109.417 94.16 101.735C94.0159 101.567 93.8951 101.368 93.8167 101.139C92.4605 97.1532 91.2292 93.0696 90.1951 88.8589Z" fill="#00A88E"/>
<path d="M19.3247 66.1625C18.3754 63.4055 18.0278 60.4493 18.28 57.5546C18.3287 57.0269 18.3944 56.5098 18.4792 55.9864C17.0615 56.0458 15.6671 55.9991 14.2918 55.8593C12.2066 55.6558 10.1764 55.2341 8.1823 54.6577C7.90046 56.8828 7.75 59.1524 7.75 61.4538C7.75 67.9829 8.93884 74.2301 11.1131 79.9984C12.2426 77.6673 13.4378 75.3914 14.7241 73.1917C16.1227 70.7822 17.6443 68.4406 19.3247 66.1625Z" fill="#00A88E"/>
<path d="M108.86 53.4098L108.795 53.4882L108.735 53.573L108.699 53.6154L108.67 53.6578L108.604 53.7362L108.545 53.8209H108.538L108.479 53.8994L108.413 53.9841L108.384 54.0265L108.354 54.0625L108.288 54.1473L108.223 54.2321L108.163 54.3105L108.098 54.3952L108.068 54.4376L108.032 54.4736L107.973 54.5584L107.907 54.6368L107.848 54.7216L107.782 54.8L107.752 54.8424L107.723 54.8784L107.657 54.9632L107.591 55.0416L107.561 55.0839L107.538 55.12L107.508 55.156L107.449 55.2344L107.419 55.2704L107.39 55.3065L107.36 55.3425L107.33 55.3849L107.301 55.4209L107.271 55.4569L107.241 55.4929L107.212 55.5353L107.182 55.5714L107.159 55.6074H107.152L107.129 55.6498H107.123L107.099 55.6858H107.093L107.07 55.7218H107.063L107.04 55.7642H107.034L107.01 55.8002H107.004L106.955 55.8659L106.949 55.8786H106.926L106.896 55.9147V55.921L106.866 55.957L106.837 55.9931L106.807 56.0354L106.777 56.0715V56.0778L106.718 56.1499V56.1562L106.688 56.1923H106.682L106.652 56.2346L106.623 56.2707V56.277L106.593 56.3131L106.563 56.3554H106.557L106.527 56.3978L106.498 56.4338V56.4402L106.468 56.4762L106.462 56.4826L106.432 56.5186L106.402 56.561L106.366 56.6034L106.337 56.6458L106.301 56.6881L106.271 56.7305L106.235 56.7729L106.205 56.8153V56.8216L106.169 56.8577V56.864L106.14 56.9064H106.133L106.103 56.9488L106.067 56.9912V56.9975L106.031 57.0399L106.002 57.0823H105.995L105.966 57.131L105.93 57.1734L105.894 57.2222L105.858 57.2645V57.2709L105.822 57.3133L105.75 57.4086L105.714 57.451V57.4574L105.678 57.4998H105.671L105.635 57.5485L105.599 57.5972L105.563 57.646L105.521 57.699C105.076 58.2754 104.518 58.7204 103.881 59.0319C103.238 59.3498 102.548 59.5129 101.814 59.5129H101.785L101.755 59.5066H101.581L101.569 59.5002H101.477L101.448 59.4939H101.405C101.376 59.4875 101.346 59.4875 101.31 59.4812H101.293L101.263 59.4748H101.234L101.215 59.4684H101.202L101.179 59.4621H101.143L101.113 59.4557L101.083 59.4494L101.054 59.443H101.024L101.018 59.4367H100.994L100.982 59.4303H100.965L100.952 59.4239H100.935L100.918 59.4176L100.859 59.4049H100.846L100.823 59.3985L100.793 59.3922L100.763 59.3858H100.757L100.734 59.3794L100.727 59.3731L100.704 59.3667H100.698L100.674 59.3604H100.662L100.645 59.354L100.632 59.3477H100.615L100.602 59.3413L100.566 59.3286H100.56L100.537 59.3222H100.53L100.507 59.3095H100.5L100.471 59.3032L100.441 59.2904L100.418 59.2841H100.411L100.388 59.2714H100.382L100.359 59.265L100.346 59.2587L100.327 59.2523H100.314L100.297 59.2459L100.274 59.2332L100.257 59.2269L100.244 59.2205L100.227 59.2141H100.214L100.191 59.2014H100.185L100.161 59.1887L100.132 59.176L100.102 59.1633L100.079 59.1569L100.072 59.1506L100.049 59.1442L100.043 59.1379L100.019 59.1315L100.013 59.1251L99.994 59.1188L99.9771 59.1124L99.9643 59.1061L99.9474 59.0997L99.9347 59.0934C99.8796 59.07 99.8202 59.0446 99.7673 59.0213C99.1315 58.7098 98.5784 58.2584 98.1207 57.6757C97.3048 56.6246 96.686 55.8384 96.0609 55.0394C92.6851 50.7439 89.0571 46.1306 86.671 42.1424L86.6222 42.0703C83.3355 42.8692 79.8516 43.7889 77.1963 45.1219C74.5537 46.4442 72.6783 48.1904 72.7037 50.6846C72.7631 56.722 68.9677 57.9702 66.3421 58.8369C65.8737 58.9874 65.4584 59.1251 65.2719 59.2269C63.7885 60.0385 63.193 61.0175 63.2121 62.0623C63.2291 63.0286 63.6932 64.1348 64.4433 65.2876C65.2846 66.5739 66.4565 67.8708 67.7895 69.0787C71.8561 72.7618 77.101 75.6629 78.7941 75.0314C79.3939 74.8025 80.4831 73.1984 81.5511 71.6069C83.0833 69.3309 84.5964 67.0889 86.5311 66.8494C88.7541 66.5782 90.5024 68.6634 91.3437 75.487C91.8777 79.8122 92.6703 83.9805 93.662 88.0239C94.5923 91.8192 95.7049 95.5574 96.9425 99.2447C106.824 89.681 112.963 76.2859 112.963 61.4541C112.963 57.4531 112.512 53.5539 111.666 49.8073C110.74 51.0025 109.797 52.2083 108.86 53.4098Z" fill="#00A88E"/>
<path d="M25.7775 48.4426C23.4465 51.0492 22.1262 54.4017 21.8253 57.8559C21.5138 61.3948 22.2703 65.0101 24.0843 68.0383C26.3242 71.7934 29.8992 76.3348 33.2199 80.5624C34.0061 81.5542 34.7754 82.5332 35.2988 83.2114C35.4259 83.3682 35.5573 83.4826 35.6887 83.5483C35.8265 83.614 35.996 83.65 36.1994 83.65C36.4029 83.65 36.5724 83.614 36.7101 83.5483C36.8415 83.4826 36.975 83.3682 37.1001 83.2114C37.6235 82.5332 38.397 81.5542 39.1789 80.5561C42.5018 76.3326 46.0683 71.7913 48.3146 68.0383C50.1412 64.9868 50.8745 61.3821 50.5672 57.8813C50.2599 54.3911 48.927 51.028 46.615 48.4448C46.2908 48.0845 45.9538 47.7412 45.5936 47.4233C42.9976 45.0986 39.6049 43.9331 36.2037 43.9268C32.8046 43.9268 29.4097 45.0859 26.8032 47.4233C26.4493 47.7391 26.1081 48.0824 25.7775 48.4426ZM36.1994 48.7605C38.7954 48.7605 41.1497 49.8116 42.8493 51.5175C44.5552 53.2171 45.6063 55.5714 45.6063 58.1674C45.6063 60.7676 44.5552 63.1177 42.8493 64.8236C41.1497 66.5231 38.7954 67.5742 36.1994 67.5742C33.5992 67.5742 31.2491 66.5231 29.5432 64.8236C27.8437 63.1177 26.7862 60.7697 26.7862 58.1674C26.7862 55.5714 27.8437 53.2171 29.5432 51.5175C31.2491 49.8116 33.5971 48.7605 36.1994 48.7605Z" fill="#00A88E"/>
<path d="M36.1995 64.0183C37.8164 64.0183 39.2743 63.3635 40.3318 62.306C41.3956 61.2486 42.0504 59.7821 42.0504 58.1674C42.0504 56.5504 41.3956 55.0925 40.3318 54.0287C39.2743 52.9712 37.8142 52.3164 36.1995 52.3164C34.5847 52.3164 33.1182 52.9712 32.0608 54.0287C31.0033 55.0925 30.3485 56.5526 30.3485 58.1674C30.3485 59.7843 31.0033 61.2486 32.0608 62.306C33.1182 63.3635 34.5826 64.0183 36.1995 64.0183Z" fill="#00A88E"/>
<path d="M101.808 24.6001C100.191 24.6001 98.7331 25.2549 97.6693 26.3124C96.6119 27.3698 95.957 28.8363 95.957 30.451C95.957 32.0679 96.6119 33.5259 97.6693 34.5897C98.7331 35.6472 100.193 36.302 101.808 36.302C103.425 36.302 104.889 35.6472 105.947 34.5897C107.004 33.5259 107.659 32.0658 107.659 30.451C107.659 28.8341 107.004 27.3698 105.947 26.3124C104.889 25.2549 103.423 24.6001 101.808 24.6001Z" fill="#00A88E"/>
<path d="M116.182 30.1562C115.875 26.666 114.536 23.3071 112.23 20.726C111.906 20.3658 111.562 20.0225 111.209 19.7046C108.608 17.3799 105.22 16.208 101.819 16.208C98.4174 16.208 95.0183 17.3672 92.4118 19.7046C92.0579 20.0225 91.7146 20.3658 91.3903 20.726C89.0529 23.3326 87.7391 26.685 87.4318 30.1392C87.1245 33.6718 87.8768 37.2934 89.6908 40.3217C91.9371 44.0705 95.5057 48.6118 98.8328 52.8395C99.6147 53.8376 100.388 54.8208 100.912 55.4884C101.026 55.6388 101.157 55.7533 101.302 55.8253H101.295L101.302 55.8317C101.433 55.8974 101.609 55.927 101.806 55.927C102.009 55.927 102.185 55.8974 102.317 55.8317C102.454 55.766 102.588 55.6516 102.707 55.4884C103.234 54.8166 104.003 53.8354 104.785 52.8395C108.112 48.6096 111.681 44.0683 113.927 40.3217C115.756 37.2701 116.489 33.6591 116.182 30.1562ZM108.464 37.1006C106.758 38.8065 104.41 39.8576 101.808 39.8576C99.2121 39.8576 96.8577 38.8065 95.1582 37.1006C93.4523 35.4011 92.4012 33.0467 92.4012 30.4507C92.4012 27.8506 93.4523 25.5004 95.1582 23.7945C96.8577 22.095 99.2121 21.0439 101.808 21.0439C104.408 21.0439 106.758 22.095 108.464 23.7945C110.164 25.5004 111.215 27.8484 111.215 30.4507C111.215 33.0467 110.164 35.4011 108.464 37.1006Z" fill="#00A88E"/>
</svg>
