<svg width="124" height="124" viewBox="0 0 124 124" fill="none" xmlns="http://www.w3.org/2000/svg">
<path d="M43.4772 80.445C37.458 85.1725 33.583 92.5092 33.583 100.75V108.5H18.083C13.7947 108.5 10.333 105.038 10.333 100.75V95.5833C10.333 85.5858 18.4188 77.5 28.4163 77.5H33.583C37.2513 77.5 40.6355 78.585 43.4772 80.445Z" fill="#00A88E"/>
<path d="M93 77.5C99.4203 77.5 104.625 72.2953 104.625 65.875C104.625 59.4547 99.4203 54.25 93 54.25C86.5797 54.25 81.375 59.4547 81.375 65.875C81.375 72.2953 86.5797 77.5 93 77.5Z" fill="#00A88E"/>
<path d="M31 77.5C37.4203 77.5 42.625 72.2953 42.625 65.875C42.625 59.4547 37.4203 54.25 31 54.25C24.5797 54.25 19.375 59.4547 19.375 65.875C19.375 72.2953 24.5797 77.5 31 77.5Z" fill="#00A88E"/>
<path d="M113.667 95.5833V100.75C113.667 105.038 110.205 108.5 105.917 108.5H90.4166V100.75C90.4166 92.5092 86.5416 85.1725 80.5225 80.445C83.3641 78.585 86.7483 77.5 90.4166 77.5H95.5833C105.581 77.5 113.667 85.5858 113.667 95.5833Z" fill="#00A88E"/>
<path d="M62.0003 80.0832C69.8474 80.0832 76.2087 73.7219 76.2087 65.8748C76.2087 58.0278 69.8474 51.6665 62.0003 51.6665C54.1533 51.6665 47.792 58.0278 47.792 65.8748C47.792 73.7219 54.1533 80.0832 62.0003 80.0832Z" fill="#00A88E"/>
<path d="M64.5833 80.083H59.4167C48.0216 80.083 38.75 89.3546 38.75 100.75V108.5C38.75 112.773 42.2272 116.25 46.5 116.25H77.5C81.7728 116.25 85.25 112.773 85.25 108.5V100.75C85.25 89.3546 75.9784 80.083 64.5833 80.083Z" fill="#00A88E"/>
<path d="M99.4587 43.1003L93.2251 45.3168C91.4556 45.9446 89.6085 44.6038 89.6601 42.7258L89.841 36.1124L85.8058 30.8683C84.6614 29.3803 85.3666 27.2077 87.1672 26.6755L93.5145 24.8052L97.2551 19.3466C98.3169 17.7992 100.601 17.7992 101.662 19.3466L105.403 24.8052L111.75 26.6755C113.551 27.2051 114.256 29.3803 113.112 30.8683L109.076 36.1124L109.257 42.7258C109.309 44.6013 107.459 45.9446 105.692 45.3168L99.4587 43.1003Z" fill="#00A88E"/>
<path d="M24.5417 43.1003L18.3082 45.3168C16.5386 45.9446 14.6915 44.6038 14.7432 42.7258L14.924 36.1124L10.8888 30.8683C9.7444 29.3803 10.4497 27.2077 12.2502 26.6755L18.5975 24.8052L22.3382 19.3466C23.3999 17.7992 25.6836 17.7992 26.7453 19.3466L30.486 24.8052L36.8332 26.6755C38.6338 27.2051 39.3391 29.3803 38.1947 30.8683L34.1595 36.1124L34.3403 42.7258C34.392 44.6013 32.5423 45.9446 30.7753 45.3168L24.5417 43.1003Z" fill="#00A88E"/>
<path d="M61.9998 37.2876L54.6089 39.9149C52.5113 40.6615 50.3206 39.0676 50.3826 36.8433L50.597 29.0029L45.8127 22.7848C44.4564 21.0204 45.2934 18.4448 47.4273 17.8145L54.9525 15.5954L59.3881 9.12414C60.6462 7.28739 63.3561 7.28739 64.6142 9.12414L69.0498 15.5954L76.575 17.8145C78.7088 18.4448 79.5458 21.0204 78.1896 22.7848L73.4053 29.0029L73.6197 36.8433C73.6817 39.0676 71.4884 40.6615 69.3933 39.9149L61.9998 37.2876Z" fill="#00A88E"/>
</svg>
