<svg width="110" height="107" viewBox="0 0 110 107" fill="none" xmlns="http://www.w3.org/2000/svg">
<path d="M34.8705 90.2043C39.8018 87.0319 43.8748 83.3743 46.0617 79.8968C47.1361 78.1845 47.7316 76.5698 47.6892 75.1393C47.6532 73.8721 47.0704 72.6875 45.8159 71.6788C44.4533 70.5853 42.3617 69.6783 39.4119 69.0299C38.2527 70.562 37.0511 72.1047 35.8623 73.6263L35.7903 73.711L35.7669 73.7407L35.7246 73.8L35.6525 73.8848L35.6101 73.9441L35.5868 73.9738L35.5211 74.0586L35.4491 74.1497L35.3834 74.2345L35.3177 74.3256L35.2944 74.3553L35.2456 74.4082L35.1799 74.4994L35.1312 74.5545L35.1079 74.5841L35.0422 74.6689L34.9765 74.76L34.9172 74.8321L34.8875 74.8681V74.8744L34.8578 74.9105L34.8282 74.9465L34.7985 74.9825L34.7752 75.0249H34.7688L34.7455 75.0609L34.7158 75.097L34.6862 75.133L34.6565 75.1754L34.6268 75.2114L34.5972 75.2474L34.5908 75.2601L34.5357 75.3258L34.4764 75.3979V75.4042L34.4467 75.4403L34.4171 75.4763L34.3577 75.5547L34.328 75.5907L34.2984 75.6331L34.2687 75.6691L34.239 75.7115L34.2094 75.7475L34.1797 75.7899H34.1734L34.1437 75.8259V75.8323L34.114 75.8683L34.0843 75.9107L34.0547 75.9467L34.025 75.9891H34.0187L33.989 76.0315L33.9593 76.0675L33.9297 76.1099L33.9 76.1523H33.8936L33.864 76.1947L33.8343 76.2307V76.2371L33.7983 76.2731V76.2794L33.7686 76.3155V76.3218L33.7389 76.3578L33.7326 76.3642L33.7029 76.4002V76.4066L33.6732 76.4426L33.6669 76.449L33.6372 76.485V76.4913L33.6012 76.5337L33.5715 76.5761L33.5355 76.6185L33.4995 76.6609V76.6672L33.4698 76.7096H33.4634L33.4338 76.752L33.3977 76.7944V76.8007L33.3257 76.8855V76.8919L33.296 76.9342H33.2897L33.26 76.983H33.2536L33.224 77.0254L33.2176 77.0317L33.188 77.0741H33.1816L33.1456 77.1229L33.0735 77.2182L33.0375 77.267L33.0015 77.3157L32.9591 77.3644L32.9231 77.4132C32.4717 77.9896 31.9207 78.441 31.2828 78.7525C30.6407 79.064 29.9436 79.2272 29.2167 79.2272C28.4898 79.2272 27.7926 79.064 27.1505 78.7525C26.5148 78.441 25.9617 77.9896 25.5103 77.4132C24.6944 76.3684 24.0757 75.5759 23.4441 74.777C20.0684 70.4815 16.4468 65.8745 14.0542 61.8799C12.9078 63.5307 11.8313 65.2387 10.8098 66.9912C9.29042 69.6041 7.90874 72.2764 6.63514 75.0037C6.44865 75.4 6.13078 75.7009 5.75781 75.8683C10.3775 85.6651 17.928 93.8047 27.2819 99.1577C28.1719 97.314 29.1552 95.589 30.3462 94.0929C31.5901 92.493 33.0629 91.16 34.8705 90.2043Z" fill="#00A88E"/>
<path d="M7.63842 44.3353C9.20659 44.4921 10.7917 44.5154 12.4086 44.3841C12.5951 43.8606 12.8049 43.3499 13.0338 42.8456C13.2372 42.4005 13.4533 41.9682 13.6886 41.5423C14.2946 40.4361 15.0215 39.3786 15.8755 38.389C15.9603 38.2873 16.0493 38.1856 16.1404 38.0817L16.1574 38.0648L16.1743 38.0415L16.2167 37.9991L16.2337 37.9758L16.24 37.9694L16.2527 37.9567L16.276 37.9334L16.293 37.9164V37.9101L16.3354 37.8677L16.3714 37.8253L16.3884 37.8084C17.4394 36.6852 18.5986 35.7486 19.8425 34.9857C21.0674 34.2355 22.3834 33.64 23.7524 33.2141C25.0132 31.6396 26.5517 30.0354 28.5162 28.4926C30.648 26.81 33.3033 25.1952 36.6918 23.7288C43.2696 20.887 48.0271 17.8418 52.1298 14.2266C56.0883 10.7427 59.4577 6.70576 63.2658 1.79783C60.0553 1.1748 56.741 0.856934 53.3461 0.856934C27.8296 0.856934 6.55131 19.0328 1.75781 43.1465C1.82351 43.1528 1.88496 43.1698 1.9443 43.1889C3.81762 43.7398 5.71636 44.1425 7.63842 44.3353Z" fill="#00A88E"/>
<path d="M83.1946 80.8589C82.1604 76.6355 81.3382 72.3294 80.7978 67.9131C80.2808 63.7447 80.0477 62.3694 79.9438 62.38C79.6196 62.4224 78.5558 63.9969 77.475 65.5947C76.0933 67.644 74.6947 69.7207 73.0121 70.3522C70.236 71.3863 63.2874 68.1356 58.3964 63.7087C56.8346 62.2974 55.4593 60.7652 54.4506 59.2225C53.3571 57.5399 52.6853 55.8107 52.6493 54.1281C52.6006 51.761 53.7364 49.6525 56.5591 48.114C57.0762 47.8321 57.6102 47.6583 58.212 47.4591C59.8332 46.9251 62.177 46.1495 62.1409 42.708C62.0985 38.5503 64.7899 35.8547 68.5916 33.9496C71.4206 32.5383 74.8091 31.5889 78.0535 30.79C77.0152 27.9313 76.6295 24.85 76.888 21.8345C77.2546 17.6534 78.8758 13.5741 81.7472 10.3678C81.9761 10.1157 82.2092 9.86985 82.4444 9.63463C77.7463 6.51101 72.5205 4.12062 66.9217 2.62451C66.8624 2.85974 66.7585 3.08013 66.6038 3.28568C62.4355 8.67466 58.8118 13.0761 54.4824 16.8906C50.1275 20.7283 45.0755 23.96 38.0951 26.9755C35.0435 28.2979 32.6467 29.7622 30.7183 31.2816C30.25 31.6482 29.8113 32.0149 29.4023 32.3878C33.577 32.4302 37.739 33.9009 40.9601 36.785C41.4115 37.1877 41.8438 37.62 42.257 38.082C45.1052 41.2607 46.7433 45.357 47.1099 49.574C47.4828 53.7848 46.5864 58.1396 44.3592 61.8587C43.5773 63.162 42.666 64.5309 41.6743 65.938C44.4376 66.6882 46.5271 67.7033 48.0359 68.9112C50.1741 70.6362 51.1659 72.7256 51.2316 75.044C51.2909 77.2119 50.5047 79.4942 49.0637 81.7892C46.5822 85.7244 42.0769 89.7911 36.6837 93.2495C36.6413 93.2728 36.5989 93.2982 36.5566 93.3216C35.2109 94.0294 34.0814 95.0508 33.1087 96.282C32.0703 97.5853 31.1994 99.111 30.4174 100.751L30.3941 100.794C37.3322 104.157 45.1179 106.049 53.3465 106.049C66.2245 106.049 78.0175 101.417 87.1595 93.7348C87.0154 93.5674 86.8946 93.3682 86.8162 93.1393C85.4599 89.1532 84.2287 85.0696 83.1946 80.8589Z" fill="#00A88E"/>
<path d="M12.3247 58.1625C11.3754 55.4055 11.0278 52.4493 11.28 49.5546C11.3287 49.0269 11.3944 48.5098 11.4792 47.9864C10.0615 48.0458 8.66711 47.9991 7.29178 47.8593C5.20655 47.6558 3.17641 47.2341 1.1823 46.6577C0.900459 48.8828 0.75 51.1524 0.75 53.4538C0.75 59.9829 1.93884 66.2301 4.11307 71.9984C5.24258 69.6673 6.43777 67.3914 7.72409 65.1917C9.12272 62.7823 10.6443 60.4406 12.3247 58.1625Z" fill="#00A88E"/>
<path d="M101.86 45.4098L101.794 45.4882L101.735 45.573L101.699 45.6154L101.669 45.6578L101.603 45.7362L101.544 45.8209H101.538L101.478 45.8994L101.413 45.9841L101.383 46.0265L101.353 46.0625L101.288 46.1473L101.222 46.2321L101.163 46.3105L101.097 46.3952L101.067 46.4376L101.031 46.4736L100.972 46.5584L100.906 46.6368L100.847 46.7216L100.781 46.8L100.751 46.8424L100.722 46.8784L100.656 46.9632L100.59 47.0416L100.561 47.0839L100.537 47.12L100.508 47.156L100.448 47.2344L100.419 47.2704L100.389 47.3065L100.359 47.3425L100.33 47.3849L100.3 47.4209L100.27 47.4569L100.241 47.4929L100.211 47.5353L100.181 47.5714L100.158 47.6074H100.152L100.128 47.6498H100.122L100.099 47.6858H100.092L100.069 47.7218H100.063L100.039 47.7642H100.033L100.01 47.8002H100.003L99.9547 47.8659L99.9483 47.8786H99.925L99.8953 47.9147V47.921L99.8657 47.957L99.836 47.9931L99.8063 48.0354L99.7766 48.0715V48.0778L99.7173 48.1499V48.1562L99.6876 48.1923H99.6813L99.6516 48.2346L99.622 48.2707V48.277L99.5923 48.3131L99.5626 48.3554H99.5563L99.5266 48.3978L99.4969 48.4338V48.4402L99.4673 48.4762L99.4609 48.4826L99.4312 48.5186L99.4016 48.561L99.3655 48.6034L99.3359 48.6458L99.2998 48.6881L99.2702 48.7305L99.2341 48.7729L99.2045 48.8153V48.8216L99.1685 48.8577V48.864L99.1388 48.9064H99.1324L99.1028 48.9488L99.0667 48.9912V48.9975L99.0307 49.0399L99.001 49.0823H98.9947L98.965 49.131L98.929 49.1734L98.893 49.2222L98.8569 49.2645V49.2709L98.8209 49.3133L98.7489 49.4086L98.7128 49.451V49.4574L98.6768 49.4998H98.6705L98.6344 49.5485L98.5984 49.5972L98.5624 49.646L98.52 49.699C98.075 50.2754 97.5176 50.7204 96.8798 51.0319C96.2377 51.3498 95.5468 51.5129 94.8136 51.5129H94.784L94.7543 51.5066H94.5805L94.5678 51.5002H94.4767L94.447 51.4939H94.4046C94.375 51.4875 94.3453 51.4875 94.3093 51.4812H94.2923L94.2626 51.4748H94.233L94.2139 51.4684H94.2012L94.1779 51.4621H94.1419L94.1122 51.4557L94.0825 51.4494L94.0529 51.443H94.0232L94.0168 51.4367H93.9935L93.9808 51.4303H93.9638L93.9511 51.4239H93.9342L93.9172 51.4176L93.8579 51.4049H93.8452L93.8219 51.3985L93.7922 51.3922L93.7625 51.3858H93.7562L93.7329 51.3794L93.7265 51.3731L93.7032 51.3667H93.6968L93.6735 51.3604H93.6608L93.6439 51.354L93.6311 51.3477H93.6142L93.6015 51.3413L93.5654 51.3286H93.5591L93.5358 51.3222H93.5294L93.5061 51.3095H93.4998L93.4701 51.3032L93.4404 51.2904L93.4171 51.2841H93.4108L93.3874 51.2714H93.3811L93.3578 51.265L93.3451 51.2587L93.326 51.2523H93.3133L93.2963 51.2459L93.273 51.2332L93.2561 51.2269L93.2433 51.2205L93.2264 51.2141H93.2137L93.1904 51.2014H93.184L93.1607 51.1887L93.131 51.176L93.1014 51.1633L93.078 51.1569L93.0717 51.1506L93.0484 51.1442L93.042 51.1379L93.0187 51.1315L93.0124 51.1251L92.9933 51.1188L92.9763 51.1124L92.9636 51.1061L92.9467 51.0997L92.9339 51.0934C92.8789 51.07 92.8195 51.0446 92.7665 51.0213C92.1308 50.7098 91.5777 50.2584 91.12 49.6757C90.3041 48.6246 89.6853 47.8384 89.0602 47.0394C85.6844 42.7439 82.0564 38.1306 79.6703 34.1424L79.6215 34.0703C76.3347 34.8692 72.8509 35.7889 70.1956 37.1219C67.553 38.4442 65.6776 40.1904 65.703 42.6846C65.7623 48.722 61.967 49.9702 59.3413 50.8369C58.873 50.9874 58.4577 51.1251 58.2712 51.2269C56.7878 52.0385 56.1923 53.0175 56.2114 54.0623C56.2283 55.0286 56.6924 56.1348 57.4426 57.2876C58.2839 58.5739 59.4558 59.8708 60.7887 61.0787C64.8554 64.7618 70.1002 67.6629 71.7934 67.0314C72.3931 66.8025 73.4824 65.1984 74.5504 63.6069C76.0826 61.3309 77.5956 59.0889 79.5304 58.8494C81.7534 58.5782 83.5017 60.6634 84.343 67.487C84.877 71.8122 85.6695 75.9805 86.6613 80.0239C87.5916 83.8192 88.7041 87.5574 89.9417 91.2447C99.8233 81.681 105.962 68.2859 105.962 53.4541C105.962 49.4531 105.511 45.5539 104.666 41.8073C103.739 43.0025 102.796 44.2083 101.86 45.4098Z" fill="#00A88E"/>
<path d="M18.7782 40.4426C16.4471 43.0492 15.1269 46.4017 14.826 49.8559C14.5145 53.3948 15.271 57.0101 17.085 60.0383C19.3249 63.7934 22.8999 68.3348 26.2206 72.5624C27.0068 73.5542 27.776 74.5332 28.2995 75.2114C28.4266 75.3682 28.558 75.4826 28.6894 75.5483C28.8271 75.614 28.9967 75.65 29.2001 75.65C29.4035 75.65 29.5731 75.614 29.7108 75.5483C29.8422 75.4826 29.9757 75.3682 30.1007 75.2114C30.6242 74.5332 31.3977 73.5542 32.1796 72.5561C35.5024 68.3326 39.0689 63.7913 41.3152 60.0383C43.1419 56.9868 43.8752 53.3821 43.5679 49.8813C43.2606 46.3911 41.9277 43.028 39.6157 40.4448C39.2915 40.0845 38.9545 39.7412 38.5943 39.4233C35.9983 37.0986 32.6056 35.9331 29.2044 35.9268C25.8053 35.9268 22.4104 37.0859 19.8038 39.4233C19.45 39.7391 19.1088 40.0824 18.7782 40.4426ZM29.2001 40.7605C31.7961 40.7605 34.1504 41.8116 35.85 43.5175C37.5559 45.2171 38.607 47.5714 38.607 50.1674C38.607 52.7676 37.5559 55.1177 35.85 56.8236C34.1504 58.5231 31.7961 59.5742 29.2001 59.5742C26.5999 59.5742 24.2498 58.5231 22.5439 56.8236C20.8443 55.1177 19.7869 52.7697 19.7869 50.1674C19.7869 47.5714 20.8443 45.2171 22.5439 43.5175C24.2498 41.8116 26.5978 40.7605 29.2001 40.7605Z" fill="#00A88E"/>
<path d="M29.1986 56.0183C30.8155 56.0183 32.2735 55.3635 33.3309 54.306C34.3947 53.2486 35.0495 51.7821 35.0495 50.1674C35.0495 48.5504 34.3947 47.0925 33.3309 46.0287C32.2735 44.9712 30.8134 44.3164 29.1986 44.3164C27.5838 44.3164 26.1174 44.9712 25.0599 46.0287C24.0025 47.0925 23.3477 48.5526 23.3477 50.1674C23.3477 51.7843 24.0025 53.2486 25.0599 54.306C26.1174 55.3635 27.5817 56.0183 29.1986 56.0183Z" fill="#00A88E"/>
<path d="M94.808 16.6001C93.1911 16.6001 91.7331 17.2549 90.6693 18.3124C89.6118 19.3698 88.957 20.8363 88.957 22.451C88.957 24.0679 89.6118 25.5259 90.6693 26.5897C91.7331 27.6472 93.1932 28.302 94.808 28.302C96.4249 28.302 97.8892 27.6472 98.9467 26.5897C100.004 25.5259 100.659 24.0658 100.659 22.451C100.659 20.8341 100.004 19.3698 98.9467 18.3124C97.8892 17.2549 96.4228 16.6001 94.808 16.6001Z" fill="#00A88E"/>
<path d="M109.182 22.1562C108.875 18.666 107.536 15.3071 105.23 12.726C104.906 12.3658 104.563 12.0225 104.209 11.7046C101.609 9.37989 98.2201 8.20801 94.8189 8.20801C91.4177 8.20801 88.0186 9.36718 85.412 11.7046C85.0581 12.0225 84.7148 12.3658 84.3906 12.726C82.0532 15.3326 80.7393 18.685 80.4321 22.1392C80.1248 25.6718 80.8771 29.2934 82.6911 32.3217C84.9374 36.0705 88.506 40.6118 91.833 44.8395C92.615 45.8376 93.3885 46.8208 93.9119 47.4884C94.0263 47.6388 94.1577 47.7533 94.3018 47.8253H94.2955L94.3018 47.8317C94.4332 47.8974 94.6091 47.927 94.8062 47.927C95.0096 47.927 95.1855 47.8974 95.3169 47.8317C95.4546 47.766 95.5881 47.6516 95.7068 47.4884C96.2345 46.8166 97.0037 45.8354 97.7857 44.8395C101.113 40.6097 104.681 36.0683 106.928 32.3217C108.756 29.2701 109.49 25.6591 109.182 22.1562ZM101.465 29.1006C99.7586 30.8065 97.4106 31.8576 94.8083 31.8576C92.2124 31.8576 89.858 30.8065 88.1584 29.1006C86.4525 27.4011 85.4014 25.0467 85.4014 22.4507C85.4014 19.8506 86.4525 17.5004 88.1584 15.7945C89.858 14.095 92.2124 13.0439 94.8083 13.0439C97.4085 13.0439 99.7586 14.095 101.465 15.7945C103.164 17.5004 104.215 19.8484 104.215 22.4507C104.215 25.0467 103.164 27.4011 101.465 29.1006Z" fill="#00A88E"/>
</svg>
