<svg width="124" height="124" viewBox="0 0 124 124" fill="none" xmlns="http://www.w3.org/2000/svg">
<path d="M40.4909 64.7915C40.5107 64.8113 40.5206 64.841 40.5206 64.8707V74.4727C40.5206 74.5024 40.5107 74.5222 40.4909 74.5519C40.4711 74.5717 40.4414 74.5915 40.4117 74.5915H30.8097C30.78 74.5915 30.7602 74.5717 30.7305 74.5519C30.7107 74.5321 30.6909 74.5024 30.6909 74.4727V64.8707C30.6909 64.841 30.7107 64.8113 30.7305 64.7915C30.7503 64.7717 30.78 64.7618 30.8097 64.7618H40.4117C40.4414 64.7519 40.4711 64.7717 40.4909 64.7915ZM40.4117 44.2214H30.8097C30.78 44.2214 30.7602 44.2412 30.7305 44.2511C30.7107 44.2709 30.6909 44.3006 30.6909 44.3303V53.9323C30.6909 53.962 30.7107 53.9917 30.7305 54.0115C30.7503 54.0313 30.78 54.0412 30.8097 54.0412H40.4117C40.4414 54.0412 40.4711 54.0313 40.4909 54.0115C40.5107 53.9917 40.5206 53.962 40.5206 53.9323V44.3303C40.5206 44.3006 40.5107 44.2709 40.4909 44.2511C40.4711 44.2412 40.4414 44.2214 40.4117 44.2214ZM40.4117 23.7008H30.8097C30.78 23.7008 30.7602 23.7206 30.7305 23.7404C30.7107 23.7602 30.6909 23.7899 30.6909 23.8196V33.4216C30.6909 33.4513 30.7107 33.481 30.7305 33.5008C30.7503 33.5206 30.78 33.5305 30.8097 33.5305H40.4117C40.4414 33.5305 40.4711 33.5206 40.4909 33.5008C40.5107 33.481 40.5206 33.4513 40.5206 33.4216V23.8196C40.5206 23.7899 40.5107 23.7701 40.4909 23.7404C40.4711 23.7107 40.4414 23.7008 40.4117 23.7008ZM69.099 94.8745C69.099 98.9331 70.3562 102.695 72.4943 105.803H27.0382C25.098 105.803 23.336 105.011 22.059 103.734C20.782 102.457 20 100.705 20 98.7648V20.0382C20 18.098 20.782 16.3459 22.059 15.0689C23.336 13.7919 25.098 13 27.0382 13H84.7196C86.6598 13 88.4218 13.7919 89.6988 15.0689C90.9758 16.3459 91.7578 18.098 91.7578 20.0382V75.8883C90.659 75.6903 89.5305 75.5913 88.3822 75.5913C83.0566 75.5913 78.2358 77.7493 74.7513 81.2436C71.257 84.7281 69.099 89.5588 69.099 94.8745ZM50.2711 23.8988C50.2711 24.7699 50.9838 25.4826 51.8549 25.4826H80.4333C81.3044 25.4826 82.0073 24.7699 82.0073 23.8988C82.0073 23.0277 81.3044 22.3248 80.4333 22.3248H51.8549C50.9739 22.3248 50.2711 23.0277 50.2711 23.8988ZM50.2711 33.3226C50.2711 34.1937 50.9838 34.8966 51.8549 34.8966H80.4333C81.3044 34.8966 82.0073 34.1838 82.0073 33.3226C82.0073 32.4515 81.3044 31.7388 80.4333 31.7388H51.8549C50.9739 31.7388 50.2711 32.4515 50.2711 33.3226ZM50.2711 44.4293C50.2711 45.3004 50.9838 46.0032 51.8549 46.0032H80.4333C81.3044 46.0032 82.0073 45.3004 82.0073 44.4293C82.0073 43.5582 81.3044 42.8554 80.4333 42.8554H51.8549C50.9739 42.8554 50.2711 43.5582 50.2711 44.4293ZM50.2711 53.8531C50.2711 54.7242 50.9838 55.437 51.8549 55.437H80.4333C81.3044 55.437 82.0073 54.7242 82.0073 53.8531C82.0073 52.982 81.3044 52.2792 80.4333 52.2792H51.8549C50.9739 52.2693 50.2711 52.982 50.2711 53.8531ZM50.2711 64.9598C50.2711 65.8309 50.9838 66.5337 51.8549 66.5337H80.4333C81.3044 66.5337 82.0073 65.8309 82.0073 64.9598C82.0073 64.0887 81.3044 63.376 80.4333 63.376H51.8549C50.9739 63.376 50.2711 64.0887 50.2711 64.9598ZM50.2711 74.3836C50.2711 75.2547 50.9838 75.9576 51.8549 75.9576H74.583C75.4541 75.9576 76.157 75.2547 76.157 74.3836C76.157 73.5125 75.4541 72.8097 74.583 72.8097H51.8549C50.9739 72.7998 50.2711 73.5026 50.2711 74.3836ZM43.6883 85.3913C43.6883 84.4905 43.322 83.6689 42.7281 83.0849C42.1341 82.4909 41.3125 82.1246 40.4117 82.1246H30.8097C29.9089 82.1246 29.0873 82.4909 28.5032 83.0849C27.9093 83.6788 27.543 84.5004 27.543 85.3913V94.9933C27.543 95.904 27.9093 96.7158 28.5032 97.3097C29.0972 97.9036 29.9188 98.2699 30.8097 98.2699H40.4117C41.3224 98.2699 42.1341 97.9036 42.7281 97.3097C43.322 96.7158 43.6883 95.904 43.6883 94.9933V85.3913ZM43.6883 64.8707C43.6883 63.96 43.322 63.1483 42.7281 62.5543C42.1341 61.9604 41.3125 61.5941 40.4117 61.5941H30.8097C29.9089 61.5941 29.0873 61.9604 28.5032 62.5543C27.9093 63.1483 27.543 63.9699 27.543 64.8707V74.4727C27.543 75.3735 27.9093 76.1952 28.5032 76.7792C29.0972 77.3731 29.9188 77.7394 30.8097 77.7394H40.4117C41.3224 77.7394 42.1341 77.3731 42.7281 76.7792C43.322 76.1853 43.6883 75.3636 43.6883 74.4727V64.8707ZM43.6883 44.3402C43.6883 43.4394 43.322 42.6178 42.7281 42.0337C42.1341 41.4398 41.3125 41.0636 40.4117 41.0636H30.8097C29.9089 41.0636 29.0873 41.4299 28.5032 42.0337C27.9093 42.6277 27.543 43.4493 27.543 44.3402V53.9422C27.543 54.843 27.9093 55.6646 28.5032 56.2586C29.0972 56.8525 29.9188 57.2188 30.8097 57.2188H40.4117C41.3224 57.2188 42.1341 56.8525 42.7281 56.2586C43.322 55.6646 43.6883 54.843 43.6883 53.9422V44.3402ZM43.6883 23.8097C43.6883 22.9089 43.322 22.0873 42.7281 21.5032C42.1341 20.9093 41.3125 20.543 40.4117 20.543H30.8097C29.9089 20.543 29.0873 20.9093 28.5032 21.5032C27.9093 22.0972 27.543 22.9188 27.543 23.8097V33.4117C27.543 34.3224 27.9093 35.1341 28.5032 35.7281C29.0972 36.322 29.9188 36.6883 30.8097 36.6883H40.4117C41.3224 36.6883 42.1341 36.322 42.7281 35.7281C43.322 35.1341 43.6883 34.3125 43.6883 33.4117V23.8097ZM65.2483 94.9141C65.2483 94.043 64.5356 93.3303 63.6644 93.3303H51.8549C50.9838 93.3303 50.2711 94.043 50.2711 94.9141C50.2711 95.7853 50.9838 96.4881 51.8549 96.4881H63.6743C64.5455 96.4881 65.2483 95.7754 65.2483 94.9141ZM67.0994 85.4903C67.0994 84.6192 66.3966 83.9164 65.5255 83.9164H51.8549C50.9838 83.9164 50.2711 84.6192 50.2711 85.4903C50.2711 86.3614 50.9838 87.0741 51.8549 87.0741H65.5156C66.3867 87.0741 67.0994 86.3614 67.0994 85.4903ZM40.4117 85.2824H30.8097C30.78 85.2824 30.7602 85.3022 30.7305 85.322C30.7107 85.3418 30.6909 85.3715 30.6909 85.4012V95.0032C30.6909 95.0329 30.7107 95.0626 30.7305 95.0824C30.7503 95.1022 30.78 95.1121 30.8097 95.1121H40.4117C40.4414 95.1121 40.4711 95.1022 40.4909 95.0824C40.5107 95.0626 40.5206 95.0329 40.5206 95.0032V85.4012C40.5206 85.3715 40.5107 85.3517 40.4909 85.322C40.4711 85.2923 40.4414 85.2824 40.4117 85.2824ZM104.498 94.8745C104.498 99.3291 102.686 103.358 99.776 106.278C96.8558 109.198 92.8269 111 88.3723 111C83.9178 111 79.8889 109.198 76.9687 106.278C74.0485 103.358 72.2469 99.3291 72.2469 94.8745C72.2469 90.4299 74.0485 86.3911 76.9687 83.4709C79.8889 80.5606 83.9178 78.7491 88.3723 78.7491C92.817 78.7491 96.8558 80.5606 99.776 83.4709C102.696 86.401 104.498 90.4299 104.498 94.8745ZM99.0434 88.3709C98.4297 87.7572 97.4299 87.7572 96.8063 88.3709L87.1547 98.0323L79.9384 90.8259C79.3246 90.2121 78.3248 90.2121 77.7012 90.8259C77.0875 91.4396 77.0875 92.4394 77.7012 93.063L86.0362 101.388C86.6499 102.002 87.6497 102.002 88.2733 101.388L99.0434 90.6081C99.6671 89.9943 99.6671 88.9945 99.0434 88.3709Z" fill="#00A88E"/>
</svg>
